<svg xmlns="http://www.w3.org/2000/svg" width="702" height="840" viewBox="0 0 702 840" version="1.1"><path d="" stroke="none" fill="#080404" fill-rule="evenodd"/><path d="M 317.399 37.343 C 282.144 57.779, 250.751 76.431, 247.637 78.792 C 235.622 87.900, 224.171 105.835, 220.369 121.500 C 216.533 137.306, 218.866 158.867, 225.925 172.852 L 228.987 178.916 238.743 173.296 C 321.420 125.671, 358.321 104.165, 362.117 101.394 C 368.618 96.650, 378.878 85.407, 382.923 78.595 C 393.080 61.492, 396.166 39.947, 391.317 20 C 389.362 11.960, 384.121 -0.032, 382.616 0.093 C 382.002 0.144, 352.655 16.906, 317.399 37.343 M 360.424 196.337 C 349.932 202.477, 327.812 215.314, 311.270 224.865 C 278.050 244.045, 268.269 250.850, 253.627 264.976 C 235.856 282.119, 224.121 298.267, 213.498 320.199 C 166.702 416.804, 207.430 532.900, 304.282 578.981 C 358.029 604.553, 420.780 604.169, 473.136 577.948 C 479.682 574.670, 506.216 559.748, 507.835 558.436 C 508.316 558.045, 469.619 491.042, 468.900 491.019 C 468.570 491.009, 461.230 495.013, 452.589 499.918 C 429.362 513.103, 418.404 516.952, 398.019 519.086 C 363.754 522.674, 329.171 509.631, 304.395 483.776 C 261.074 438.569, 261.802 367.267, 306.034 323.034 C 314.752 314.317, 322.569 308.796, 342.880 297.008 C 351.629 291.930, 361.095 285.883, 363.915 283.570 C 375.290 274.239, 384.345 260.403, 389.157 245 C 392.209 235.232, 392.486 214.247, 389.700 204 C 387.379 195.463, 382.446 184.977, 380.803 185.087 C 380.086 185.135, 370.916 190.198, 360.424 196.337 M 339 764.500 L 339 837 349.500 837 L 360 837 360 829.849 L 360 822.698 364.750 827.403 C 373.012 835.587, 384.449 839.931, 397.856 839.976 C 422.767 840.058, 444.940 822.698, 451.525 797.955 C 453.425 790.815, 453.397 775.966, 451.470 768.460 C 445.055 743.479, 422.685 726, 397.130 726 C 383.442 726, 374.361 729.274, 365.198 737.512 L 360 742.185 360 717.093 L 360 692 349.500 692 L 339 692 339 764.500 M 500.500 692.970 C 490.585 694.489, 480.522 701.222, 476.477 709.044 C 475.582 710.776, 474.333 715.975, 473.703 720.597 L 472.557 729 468.278 729 L 464 729 464 738.500 L 464 748 468.500 748 L 473 748 473 792.500 L 473 837 484 837 L 495 837 495 792.500 L 495 748 504.500 748 L 514 748 514 738.500 L 514 729 504.500 729 L 495 729 495 724.146 C 495 720.421, 495.553 718.695, 497.377 716.727 C 499.932 713.970, 505.487 712.015, 510.786 712.006 L 514.072 712 513.786 702.250 L 513.500 692.500 509.500 692.352 C 507.300 692.271, 503.250 692.549, 500.500 692.970 M 41.634 727.528 C 7.443 736.145, -10.021 776.805, 6.262 809.880 C 14.915 827.457, 32.290 838.548, 53.018 839.725 C 69.035 840.634, 80.064 836.855, 89.016 827.390 L 94 822.120 94 829.560 L 94 837 104.500 837 L 115 837 115 783 L 115 729 104.500 729 L 94 729 94 735.712 L 94 742.425 89.250 737.765 C 86.561 735.127, 81.470 731.693, 77.516 729.849 C 71.084 726.850, 69.621 726.571, 59.016 726.321 C 51.327 726.140, 45.551 726.541, 41.634 727.528 M 175.173 727.484 C 170.271 729.014, 163.549 733.378, 161.425 736.410 C 160.106 738.294, 160 738.095, 160 733.723 L 160 729 150.500 729 L 141 729 141 783 L 141 837 151.500 837 L 162 837 162 803.659 C 162 767.744, 162.364 764.582, 167.365 757.024 C 170.149 752.818, 176.342 749.348, 183.132 748.192 L 187.500 747.448 187.784 736.724 L 188.068 726 183.784 726.067 C 181.428 726.104, 177.553 726.741, 175.173 727.484 M 239 727.583 C 225.641 731.107, 215.090 738.583, 207.622 749.816 C 184.922 783.962, 201.538 829.373, 240.053 838.451 C 258.691 842.844, 278.441 837.780, 288.028 826.150 L 291 822.544 291 829.772 L 291 837 302 837 L 313 837 313 783 L 313 729 302 729 L 291 729 291 735.712 L 291 742.424 288.250 739.296 C 283.895 734.342, 277.204 730.143, 270.230 727.989 C 262.443 725.584, 247.321 725.387, 239 727.583 M 559.500 727.870 C 544.184 732.278, 530.247 743.625, 523.629 757.074 C 519.837 764.779, 517.035 775.583, 517.035 782.500 C 517.035 789.415, 519.836 800.217, 523.646 808 C 526.324 813.468, 529.375 817.555, 534.909 823.086 C 546.644 834.813, 559.245 840, 576 840 C 592.755 840, 605.356 834.813, 617.091 823.086 C 622.625 817.555, 625.676 813.468, 628.354 808 C 632.164 800.217, 634.965 789.415, 634.965 782.500 C 634.965 775.583, 632.163 764.779, 628.371 757.074 C 621.580 743.274, 606.930 731.603, 591.356 727.585 C 583.149 725.468, 567.353 725.609, 559.500 727.870 M 689.224 727.469 C 684.347 728.992, 680.708 731.135, 676.750 734.817 L 674 737.374 674 733.187 L 674 729 664 729 L 654 729 654 783 L 654 837 664.953 837 L 675.906 837 676.203 801.250 L 676.500 765.500 679.142 760.500 C 680.595 757.750, 682.636 754.730, 683.679 753.788 C 686.172 751.536, 692.308 749.013, 697.407 748.145 L 701.500 747.448 701.784 736.724 L 702.068 726 697.784 726.067 C 695.428 726.104, 691.576 726.735, 689.224 727.469 M 46.909 746.831 C 36.002 750.448, 27.595 758.722, 23.368 770 C 20.805 776.839, 21.059 789.996, 23.894 797.247 C 27.004 805.201, 34.491 813.132, 42.706 817.176 C 48.484 820.021, 50.228 820.400, 57.530 820.400 C 65.069 820.400, 66.478 820.068, 73.349 816.672 C 81.823 812.484, 86.896 807.401, 90.666 799.321 C 97.425 784.833, 94.645 767.089, 83.879 755.995 C 74.948 746.792, 58.970 742.831, 46.909 746.831 M 246.746 746.086 C 228.783 750.319, 216.047 769.958, 219.049 788.794 C 221.083 801.551, 230.493 813.715, 241.703 818.077 C 249.638 821.164, 260.261 821.121, 268.500 817.970 C 276.731 814.822, 285.773 805.804, 289.025 797.500 C 292.561 788.470, 292.407 775.667, 288.665 767.542 C 284.931 759.436, 281.760 755.522, 275.663 751.493 C 267.259 745.939, 256.168 743.865, 246.746 746.086 M 386.929 746.367 C 358.837 753.942, 350.291 791.792, 372.221 811.509 C 378.934 817.544, 386.481 820.329, 396.168 820.343 C 402.772 820.354, 404.730 819.915, 410.273 817.186 C 418.049 813.358, 425.107 806.140, 428.820 798.218 C 431.137 793.274, 431.500 791.214, 431.500 783 C 431.500 774.740, 431.143 772.739, 428.766 767.664 C 423.463 756.345, 416.130 749.823, 405.068 746.588 C 398.699 744.726, 393.264 744.659, 386.929 746.367 M 566 746.601 C 554.759 749.605, 545.388 758.348, 540.920 770 C 537.809 778.111, 538.507 791.244, 542.475 799.250 C 547.976 810.351, 557.543 817.629, 569.803 820.041 C 585.220 823.074, 602.104 814.223, 609.546 799.207 C 613.492 791.245, 614.183 778.090, 611.080 770 C 606.532 758.138, 597.180 749.549, 585.540 746.540 C 578.263 744.660, 573.208 744.675, 566 746.601" stroke="none" fill="#040404" fill-rule="evenodd"/></svg>