<svg xmlns="http://www.w3.org/2000/svg" width="1000" height="396" viewBox="0 0 1000 396" version="1.1"><path d="M 120 68.037 C 102.125 78.415, 85.627 88.673, 83.339 90.833 C 74.955 98.745, 69.937 112.171, 71.383 122.820 C 72.259 129.274, 74.943 137.041, 76.503 137.640 C 77.216 137.913, 92.356 129.767, 110.149 119.537 C 137.498 103.813, 143.373 100.027, 148.147 95.051 C 159.146 83.588, 161.836 67.736, 155.325 52.750 C 154.429 50.688, 153.427 49.038, 153.098 49.084 C 152.769 49.131, 137.875 57.660, 120 68.037 M 466.698 112.635 C 466.314 113.019, 466 118.208, 466 124.167 L 466 135 477.533 135 L 489.066 135 488.783 123.750 L 488.500 112.500 477.948 112.218 C 472.145 112.063, 467.083 112.251, 466.698 112.635 M 126.379 155.814 C 99.335 171.624, 92.711 176.253, 84.895 184.805 C 46.278 227.059, 51.975 292.952, 97.192 327.024 C 122.434 346.044, 154.518 351.739, 184.027 342.437 C 193.033 339.599, 198.428 337.118, 209.185 330.870 L 215.870 326.988 206.254 310.244 C 200.965 301.035, 196.514 293.333, 196.364 293.128 C 196.213 292.924, 192.507 294.858, 188.128 297.425 C 176.466 304.262, 170.191 306.250, 158.588 306.787 C 140.734 307.613, 127.619 302.665, 115.477 290.523 C 104.348 279.394, 98.778 266.044, 98.778 250.500 C 98.778 241.076, 100.340 234.359, 104.650 225.243 C 109.734 214.491, 117.420 206.831, 131.406 198.577 C 150.225 187.470, 156.848 178.404, 157.647 162.656 C 157.985 155.991, 157.644 153.323, 155.780 148.062 C 154.526 144.521, 153.050 141.512, 152.500 141.375 C 151.950 141.239, 140.195 147.736, 126.379 155.814 M 465.760 151.558 C 446.734 156.169, 434.768 171.297, 433.374 192.500 C 432.879 200.019, 434.506 209.494, 437.451 216.250 C 438.166 217.891, 436.619 218, 412.607 218 L 387 218 386.983 204.750 C 386.973 197.114, 386.356 188.627, 385.529 184.720 C 382.733 171.527, 374.686 161.119, 363.003 155.582 C 356.929 152.703, 355.774 152.504, 345.500 152.557 C 332.624 152.623, 326.183 154.626, 317.973 161.115 C 308.443 168.649, 303.266 178.731, 302.271 191.698 C 300.753 211.493, 310.656 229.204, 327.777 237.315 C 334.268 240.390, 335.024 240.512, 349.692 240.839 L 364.883 241.177 363.875 243.839 C 361.650 249.713, 353.858 254.933, 347.250 254.978 L 344 255 344 264 L 344 273 348.451 273 C 367.486 273, 381.798 262.603, 386.060 245.677 L 387.216 241.085 438.412 240.792 L 489.608 240.500 497.144 236.774 C 510.506 230.169, 519.036 218.116, 520.909 203.195 C 525.194 169.069, 498.116 143.716, 465.760 151.558 M 889.618 152.112 C 878.505 154.721, 866.257 165.063, 860.916 176.347 C 855.816 187.122, 854.846 201.523, 858.420 213.399 L 859.804 218 832.902 218 L 806 218 806 185 L 806 152 794.500 152 L 783 152 783 193.374 C 783 228.059, 782.751 235.454, 781.461 239.110 C 778.577 247.285, 771.738 252.175, 761.250 253.563 L 756 254.258 756 263.629 L 756 273 762.290 273 C 777.375 273, 792.894 265.464, 799.563 254.900 C 800.842 252.874, 802.641 248.917, 803.559 246.108 L 805.230 241 873.115 241 L 941 241 941 229.500 L 941 218 913.074 218 L 885.147 218 882.582 212.750 C 875.427 198.107, 880.590 177.412, 892.657 172.370 C 897.232 170.459, 904.741 170.699, 909.616 172.913 C 913.373 174.619, 918.978 180.393, 919.015 182.594 C 919.076 186.158, 920.890 185.967, 930.332 181.402 C 935.650 178.831, 940 176.409, 940 176.019 C 940 175.629, 938.270 172.634, 936.156 169.363 C 928.299 157.207, 916.009 150.916, 900.500 151.112 C 896.650 151.161, 891.753 151.611, 889.618 152.112 M 261.800 194.279 L 261.500 236.558 258.945 241.520 C 255.523 248.168, 250.173 251.807, 241.688 253.261 L 235 254.406 235 263.703 L 235 273 241.250 272.985 C 248.697 272.968, 258.508 270.802, 264.127 267.935 C 269.268 265.312, 276.270 258.352, 278.846 253.302 C 283.947 243.304, 284.252 240.267, 284.731 194.750 L 285.182 152 273.641 152 L 262.100 152 261.800 194.279 M 580 174.790 C 580 191.986, 580.376 199.043, 581.530 203.540 C 586.275 222.016, 597.321 232.803, 617.500 238.666 C 622.743 240.189, 629.470 240.453, 670.808 240.759 C 724.414 241.155, 725.234 241.067, 733.198 234.057 C 735.841 231.730, 738.714 227.878, 740.111 224.788 C 742.455 219.600, 742.506 218.863, 742.810 185.750 L 743.121 152 731.560 152 L 720 152 719.978 177.750 C 719.954 206.339, 719.372 209.462, 713.267 213.810 C 708.137 217.463, 702.713 217.950, 666.934 217.976 C 630.372 218.001, 623.716 217.417, 616.040 213.510 C 610.320 210.597, 607.695 207.783, 604.822 201.488 C 602.717 196.874, 602.519 194.831, 602.177 174.250 L 601.807 152 590.904 152 L 580 152 580 174.790 M 468.500 172.818 C 463.540 175.173, 461.661 177.252, 458.950 183.380 C 454.474 193.498, 457.114 208.381, 464.541 214.901 C 474.355 223.519, 489.497 220.754, 495.129 209.316 C 498.627 202.212, 498.539 189.466, 494.945 182.482 C 491.407 175.607, 485.989 171.969, 478.405 171.378 C 473.951 171.031, 471.517 171.385, 468.500 172.818 M 336.384 174.913 C 322.212 181.349, 321.319 204.946, 334.886 214.491 C 339.004 217.388, 339.629 217.512, 351.671 217.833 L 364.179 218.167 363.839 202.333 C 363.511 187.023, 363.406 186.340, 360.654 181.658 C 355.906 173.580, 345.616 170.721, 336.384 174.913 M 657 272.533 L 657 284.066 668.250 283.783 L 679.500 283.500 679.783 272.250 L 680.066 261 668.533 261 L 657 261 657 272.533" stroke="none" fill="#fcfcfc" fill-rule="evenodd"/></svg>