<svg xmlns="http://www.w3.org/2000/svg" width="1000" height="396" viewBox="0 0 1000 396" version="1.1"><path d="M 122.500 68.075 C 102.112 79.839, 87.855 88.718, 85.196 91.308 C 82.829 93.613, 79.454 98.416, 77.696 101.979 C 74.714 108.024, 74.500 109.163, 74.500 118.979 C 74.500 127.672, 74.878 130.318, 76.674 134.206 L 78.849 138.913 110.174 120.867 C 127.404 110.941, 143.254 101.629, 145.397 100.172 C 157.700 91.812, 164.045 72.616, 159.530 57.414 C 156.613 47.592, 159.385 46.794, 122.500 68.075 M 576 196.500 L 576 269 586.500 269 L 597 269 597 261.863 L 597 254.726 602.027 259.428 C 616.543 273.006, 639.149 275.632, 658.673 266.008 C 677.357 256.798, 688.535 239.501, 689.699 218 C 690.621 200.957, 685.079 186.084, 673.469 174.446 C 662.407 163.358, 649.446 157.795, 634.500 157.720 C 620.021 157.647, 610.988 160.998, 601.750 169.865 L 597 174.425 597 149.212 L 597 124 586.500 124 L 576 124 576 196.500 M 735.355 125.039 C 725.747 126.941, 715.712 134.659, 712.333 142.744 C 711.524 144.682, 710.602 149.358, 710.286 153.134 L 709.710 160 705.355 160 L 701 160 701 170 L 701 180 705.500 180 L 710 180 710 224.500 L 710 269 720.500 269 L 731 269 731 224.500 L 731 180 740.500 180 L 750 180 750 170 L 750 160 740.364 160 L 730.728 160 731.369 155.323 C 731.722 152.751, 732.795 149.764, 733.755 148.685 C 736.208 145.928, 741.234 144, 745.968 144 L 750 144 750 134 L 750 124 744.750 124.110 C 741.862 124.170, 737.635 124.588, 735.355 125.039 M 129.931 155.132 C 103.275 170.491, 97.731 174.268, 89.356 182.778 C 71.136 201.291, 61.929 224.026, 61.929 250.500 C 61.929 278.330, 71.568 300.867, 91.692 320.087 C 111.073 338.596, 136.591 348.154, 162.500 346.608 C 173.439 345.955, 186.226 343.224, 194.316 339.813 C 199.933 337.444, 216.772 328.178, 217.448 327.084 C 217.775 326.555, 200.050 294.717, 198.647 293.314 C 198.454 293.121, 194.742 294.998, 190.398 297.485 C 178.133 304.508, 172.873 306.194, 161.489 306.751 C 148.995 307.362, 142.268 306.019, 131.943 300.851 C 109.443 289.590, 96.974 263.671, 102.090 238.799 C 102.690 235.885, 104.972 229.746, 107.163 225.159 C 112.524 213.931, 119.953 206.661, 135.427 197.500 C 153.370 186.877, 159.058 178.811, 159.819 162.912 C 160.246 153.978, 158.264 144.294, 155.548 142.040 C 154.718 141.351, 147.027 145.282, 129.931 155.132 M 285.547 158.111 C 262.916 161.409, 245.268 177.257, 238.900 200 C 238.207 202.475, 237.609 209.225, 237.570 215 C 237.513 223.513, 237.954 226.886, 239.900 232.828 C 244.313 246.300, 254.459 258.790, 265.914 264.853 C 286.988 276.007, 312.814 273.528, 326.355 259.052 L 331 254.086 331 261.543 L 331 269 342.009 269 L 353.017 269 352.759 214.750 L 352.500 160.500 342 160.500 L 331.500 160.500 331.209 167.039 L 330.918 173.579 326.318 169.171 C 320.452 163.550, 311.417 159.331, 302.500 158.047 C 294.583 156.908, 293.786 156.911, 285.547 158.111 M 418.445 157.992 C 411.880 158.956, 405.323 161.900, 400.699 165.959 L 397 169.207 397 164.604 L 397 160 387.500 160 L 378 160 378 214.500 L 378 269 388.500 269 L 399 269 399 235.682 C 399 199.955, 399.434 196.103, 404.270 188.927 C 407.098 184.731, 412.844 181.401, 419.750 179.957 L 425 178.858 425 167.929 C 425 161.918, 424.663 157.056, 424.250 157.125 C 423.837 157.193, 421.225 157.584, 418.445 157.992 M 482.226 158.146 C 458.683 161.522, 440.464 179.116, 435.567 203.208 C 433.597 212.897, 433.600 217.134, 435.581 226.792 C 437.734 237.288, 442.002 245.805, 448.799 253.168 C 459.353 264.600, 471.128 270.310, 486.791 271.590 C 501.455 272.789, 514.780 268.219, 523.355 259.052 L 528 254.086 528 261.543 L 528 269 539.009 269 L 550.017 269 549.759 214.750 L 549.500 160.500 539 160.500 L 528.500 160.500 528.209 167.039 L 527.918 173.579 523.318 169.171 C 517.452 163.550, 508.417 159.331, 499.500 158.047 C 491.563 156.905, 490.858 156.909, 482.226 158.146 M 803.226 158.109 C 780.731 161.469, 761.223 178.914, 755.571 200.724 C 748.381 228.475, 765.660 259.215, 794 269.089 C 803.358 272.349, 821.642 272.349, 831 269.089 C 840.588 265.748, 848.085 260.786, 855.274 253.021 C 865.625 241.842, 871 228.567, 871 214.184 C 871 179.339, 838.900 152.780, 803.226 158.109 M 931.500 158.002 C 925.086 158.950, 919.810 161.191, 914.974 165.020 L 911.125 168.069 910.812 164.285 L 910.500 160.500 900.750 160.214 L 891 159.928 891 214.464 L 891 269 901.500 269 L 912 269 912 237.049 C 912 217.706, 912.434 203.007, 913.099 199.799 C 915.463 188.404, 921.453 182.507, 933.282 179.928 L 939.064 178.667 938.782 168.165 C 938.622 162.195, 938.068 157.576, 937.500 157.463 C 936.950 157.353, 934.250 157.595, 931.500 158.002 M 283.863 178.509 C 269.081 183.245, 258.792 198.214, 258.780 215 C 258.765 236.745, 275.631 253.031, 296.893 251.800 C 319.220 250.508, 334.911 230.534, 331.044 208.329 C 327.819 189.814, 314.656 177.998, 296.500 177.321 C 291.389 177.131, 286.825 177.559, 283.863 178.509 M 481.500 178.341 C 471.527 181.640, 464.291 188.092, 459.762 197.726 C 450.579 217.255, 458.190 240.106, 476.780 248.819 C 481.726 251.137, 483.785 251.500, 492 251.500 C 500.206 251.500, 502.276 251.136, 507.196 248.830 C 535.155 235.724, 535.858 194.394, 508.352 180.852 C 502.906 178.171, 500.443 177.580, 493.655 177.324 C 488.739 177.139, 483.911 177.543, 481.500 178.341 M 621.300 178.802 C 604.048 184.962, 593.822 202.670, 596.994 220.890 C 599.168 233.370, 606.066 242.858, 617.214 248.700 C 621.902 251.157, 623.574 251.472, 632 251.485 C 640.224 251.498, 642.265 251.141, 647.196 248.830 C 662.934 241.453, 671.884 222.805, 667.639 206.236 C 665.465 197.751, 662.691 192.638, 657.378 187.325 C 648.257 178.205, 633.041 174.610, 621.300 178.802 M 801.624 178.637 C 789.747 182.284, 780.687 191.637, 776.876 204.183 C 771.575 221.634, 779.894 240.400, 796.554 248.581 C 801.920 251.215, 803.475 251.500, 812.500 251.500 C 821.525 251.500, 823.080 251.215, 828.446 248.581 C 836.301 244.724, 842.434 238.417, 846.321 230.201 C 849.153 224.212, 849.489 222.543, 849.479 214.500 C 849.470 206.865, 849.065 204.633, 846.807 199.787 C 843.268 192.192, 839.547 187.648, 833.500 183.536 C 824.349 177.312, 812.079 175.426, 801.624 178.637" stroke="none" fill="#fffcfc" fill-rule="evenodd"/><path d="" stroke="none" fill="#fcfcfc" fill-rule="evenodd"/></svg>