<svg xmlns="http://www.w3.org/2000/svg" xmlns:xlink="http://www.w3.org/1999/xlink" width="42" height="39" viewBox="0 0 42 39">
  <defs>
    <clipPath id="clip-path">
      <rect id="Rectangle_3465" data-name="Rectangle 3465" width="42" height="39" transform="translate(168 403)" fill="#fff"/>
    </clipPath>
  </defs>
  <g id="Mask_Group_7" data-name="Mask Group 7" transform="translate(-168 -403)" clip-path="url(#clip-path)">
    <g id="Icon_feather-camera" data-name="Icon feather-camera" transform="translate(171.5 404.5)" opacity="0.5">
      <path id="Path_16894" data-name="Path 16894" d="M34.5,28.5a3,3,0,0,1-3,3H4.5a3,3,0,0,1-3-3V12a3,3,0,0,1,3-3h6l3-4.5h9l3,4.5h6a3,3,0,0,1,3,3Z" fill="none" stroke="#43290a" stroke-linecap="round" stroke-linejoin="round" stroke-width="3"/>
      <path id="Path_16895" data-name="Path 16895" d="M24,19.5a6,6,0,1,1-6-6A6,6,0,0,1,24,19.5Z" fill="none" stroke="#43290a" stroke-linecap="round" stroke-linejoin="round" stroke-width="3"/>
    </g>
  </g>
</svg>
