<svg xmlns="http://www.w3.org/2000/svg" width="17.683" height="19.5" viewBox="0 0 17.683 19.5">
  <g id="Group_17337" data-name="Group 17337" transform="translate(0)">
    <path id="Shape" d="M0,1.52H16.183c.414,0,.75-.508.75-1.135S16.6-.75,16.183-.75H0c-.414,0-.75.508-.75,1.135S-.414,1.52,0,1.52Z" transform="translate(0.75 4.299)" fill="#fff"/>
    <path id="Shape-2" data-name="Shape" d="M1.858,18.75h9.285A2.582,2.582,0,0,0,13.75,16.2V3.6A.75.75,0,0,0,13,2.85H10.965V1.8A2.582,2.582,0,0,0,8.357-.75H4.643A2.582,2.582,0,0,0,2.036,1.8V2.85H0a.75.75,0,0,0-.75.75V16.2A2.582,2.582,0,0,0,1.858,18.75ZM12.25,4.35V16.2a1.081,1.081,0,0,1-1.107,1.05H1.858A1.081,1.081,0,0,1,.75,16.2V4.35H2.786a.75.75,0,0,0,.75-.75V1.8A1.081,1.081,0,0,1,4.643.75H8.357A1.081,1.081,0,0,1,9.465,1.8V3.6a.75.75,0,0,0,.75.75Z" transform="translate(2.136 0.75)" fill="#fff"/>
    <g id="Group_17336" data-name="Group 17336" transform="translate(6.087 7.678)">
      <path id="Shape-3" data-name="Shape" d="M0,6.144a.75.75,0,0,0,.75-.75V0A.75.75,0,0,0,0-.75.75.75,0,0,0-.75,0V5.394A.75.75,0,0,0,0,6.144Z" transform="translate(4.346 0.75)" fill="#fff"/>
      <path id="Shape-4" data-name="Shape" d="M0,6.144a.75.75,0,0,0,.75-.75V0A.75.75,0,0,0,0-.75.75.75,0,0,0-.75,0V5.394A.75.75,0,0,0,0,6.144Z" transform="translate(0.75 0.75)" fill="#fff"/>
    </g>
  </g>
</svg>
