<svg id="Group_17085" data-name="Group 17085" xmlns="http://www.w3.org/2000/svg" width="29.769" height="20.875" viewBox="0 0 29.769 20.875">
  <path id="Union_7" data-name="Union 7" d="M13.3,12.15a1.483,1.483,0,0,1-1-.318L.563,2.667A1.511,1.511,0,0,1,.308.577,1.469,1.469,0,0,1,2.394.322L13.3,8.838,24.2.322a1.473,1.473,0,0,1,2.089.255,1.513,1.513,0,0,1-.257,2.09L14.3,11.831a1.486,1.486,0,0,1-.919.321Z" transform="translate(1.616 1.403)" fill="#43290a"/>
  <path id="Path_20" data-name="Path 20" d="M26.019,4.072c-4.283-.124-8.407-.11-21.255-.06A4.777,4.777,0,0,0,0,8.775V20.088a4.777,4.777,0,0,0,4.763,4.763H25.006a4.777,4.777,0,0,0,4.763-4.763V8.775A4.8,4.8,0,0,0,26.019,4.072Zm.774,16.016a1.791,1.791,0,0,1-1.786,1.786H4.763a1.791,1.791,0,0,1-1.786-1.786V8.775A1.791,1.791,0,0,1,4.763,6.989H25.006a1.791,1.791,0,0,1,1.786,1.786Z" transform="translate(0 -3.975)" fill="#43290a"/>
</svg>
