<svg id="Icon_Alert" xmlns="http://www.w3.org/2000/svg" width="16.248" height="18.461" viewBox="0 0 16.248 18.461">
  <g id="Group_198" data-name="Group 198" transform="translate(0 0)">
    <path id="Path_22" data-name="Path 22" d="M18.061,41v.369a1.108,1.108,0,1,1-2.215,0V41H14v.369a2.953,2.953,0,1,0,5.907,0V41Z" transform="translate(-8.829 -25.861)" fill="#FFFFFF"/>
    <path id="Path_23" data-name="Path 23" d="M15.28,13.286h0a.9.9,0,0,1-.886-.886V8.118a6.281,6.281,0,0,0-5.353-6.2V.956A.93.93,0,0,0,8.229,0,.943.943,0,0,0,7.195.919v1a6.281,6.281,0,0,0-5.353,6.2V12.4a.9.9,0,0,1-.886.886h0A.93.93,0,0,0,0,14.1a.943.943,0,0,0,.923,1.034h14.4A.943.943,0,0,0,16.24,14.1.93.93,0,0,0,15.28,13.286Zm-11.592,0V8.266A4.525,4.525,0,0,1,7.675,3.725a4.417,4.417,0,0,1,4.873,4.393v5.168Z" transform="translate(0.006 0.006)" fill="#FFFFFF"/>
  </g>
</svg>
