<svg xmlns="http://www.w3.org/2000/svg" width="878" height="298" viewBox="0 0 878 298" version="1.1"><path d="" stroke="none" fill="#000000" fill-rule="evenodd"/><path d="M 61.500 19.075 C 41.112 30.839, 26.855 39.718, 24.196 42.308 C 21.829 44.613, 18.454 49.416, 16.696 52.979 C 13.714 59.024, 13.500 60.163, 13.500 69.979 C 13.500 78.672, 13.878 81.318, 15.674 85.206 L 17.849 89.913 49.174 71.867 C 66.404 61.941, 82.254 52.629, 84.397 51.172 C 96.700 42.812, 103.045 23.616, 98.530 8.414 C 95.613 -1.408, 98.385 -2.206, 61.500 19.075 M 515 147.500 L 515 220 525.500 220 L 536 220 536 212.863 L 536 205.726 541.027 210.428 C 555.543 224.006, 578.149 226.632, 597.673 217.008 C 616.357 207.798, 627.535 190.501, 628.699 169 C 629.621 151.957, 624.079 137.084, 612.469 125.446 C 601.407 114.358, 588.446 108.795, 573.500 108.720 C 559.021 108.647, 549.988 111.998, 540.750 120.865 L 536 125.425 536 100.212 L 536 75 525.500 75 L 515 75 515 147.500 M 674.355 76.039 C 664.747 77.941, 654.712 85.659, 651.333 93.744 C 650.524 95.682, 649.602 100.358, 649.286 104.134 L 648.710 111 644.355 111 L 640 111 640 121 L 640 131 644.500 131 L 649 131 649 175.500 L 649 220 659.500 220 L 670 220 670 175.500 L 670 131 679.500 131 L 689 131 689 121 L 689 111 679.364 111 L 669.728 111 670.369 106.323 C 670.722 103.751, 671.795 100.764, 672.755 99.685 C 675.208 96.928, 680.234 95, 684.968 95 L 689 95 689 85 L 689 75 683.750 75.110 C 680.862 75.170, 676.635 75.588, 674.355 76.039 M 68.931 106.132 C 42.275 121.491, 36.731 125.268, 28.356 133.778 C 10.136 152.291, 0.929 175.026, 0.929 201.500 C 0.929 229.330, 10.568 251.867, 30.692 271.087 C 50.073 289.596, 75.591 299.154, 101.500 297.608 C 112.439 296.955, 125.226 294.224, 133.316 290.813 C 138.933 288.444, 155.772 279.178, 156.448 278.084 C 156.775 277.555, 139.050 245.717, 137.647 244.314 C 137.454 244.121, 133.742 245.998, 129.398 248.485 C 117.133 255.508, 111.873 257.194, 100.489 257.751 C 87.995 258.362, 81.268 257.019, 70.943 251.851 C 48.443 240.590, 35.974 214.671, 41.090 189.799 C 41.690 186.885, 43.972 180.746, 46.163 176.159 C 51.524 164.931, 58.953 157.661, 74.427 148.500 C 92.370 137.877, 98.058 129.811, 98.819 113.912 C 99.246 104.978, 97.264 95.294, 94.548 93.040 C 93.718 92.351, 86.027 96.282, 68.931 106.132 M 224.547 109.111 C 201.916 112.409, 184.268 128.257, 177.900 151 C 177.207 153.475, 176.609 160.225, 176.570 166 C 176.513 174.513, 176.954 177.886, 178.900 183.828 C 183.313 197.300, 193.459 209.790, 204.914 215.853 C 225.988 227.007, 251.814 224.528, 265.355 210.052 L 270 205.086 270 212.543 L 270 220 281.009 220 L 292.017 220 291.759 165.750 L 291.500 111.500 281 111.500 L 270.500 111.500 270.209 118.039 L 269.918 124.579 265.318 120.171 C 259.452 114.550, 250.417 110.331, 241.500 109.047 C 233.583 107.908, 232.786 107.911, 224.547 109.111 M 357.445 108.992 C 350.880 109.956, 344.323 112.900, 339.699 116.959 L 336 120.207 336 115.604 L 336 111 326.500 111 L 317 111 317 165.500 L 317 220 327.500 220 L 338 220 338 186.682 C 338 150.955, 338.434 147.103, 343.270 139.927 C 346.098 135.731, 351.844 132.401, 358.750 130.957 L 364 129.858 364 118.929 C 364 112.918, 363.663 108.056, 363.250 108.125 C 362.837 108.193, 360.225 108.584, 357.445 108.992 M 421.226 109.146 C 397.683 112.522, 379.464 130.116, 374.567 154.208 C 372.597 163.897, 372.600 168.134, 374.581 177.792 C 376.734 188.288, 381.002 196.805, 387.799 204.168 C 398.353 215.600, 410.128 221.310, 425.791 222.590 C 440.455 223.789, 453.780 219.219, 462.355 210.052 L 467 205.086 467 212.543 L 467 220 478.009 220 L 489.017 220 488.759 165.750 L 488.500 111.500 478 111.500 L 467.500 111.500 467.209 118.039 L 466.918 124.579 462.318 120.171 C 456.452 114.550, 447.417 110.331, 438.500 109.047 C 430.563 107.905, 429.858 107.909, 421.226 109.146 M 742.226 109.109 C 719.731 112.469, 700.223 129.914, 694.571 151.724 C 687.381 179.475, 704.660 210.215, 733 220.089 C 738.355 221.954, 741.613 222.353, 751.500 222.353 C 761.387 222.353, 764.645 221.954, 770 220.089 C 779.588 216.748, 787.085 211.786, 794.274 204.021 C 804.625 192.842, 810 179.567, 810 165.184 C 810 130.339, 777.900 103.780, 742.226 109.109 M 870.500 109.002 C 864.086 109.950, 858.810 112.191, 853.974 116.020 L 850.125 119.069 849.812 115.285 L 849.500 111.500 839.750 111.214 L 830 110.928 830 165.464 L 830 220 840.500 220 L 851 220 851 188.049 C 851 168.706, 851.434 154.007, 852.099 150.799 C 854.463 139.404, 860.453 133.507, 872.282 130.928 L 878.064 129.667 877.782 119.165 C 877.622 113.195, 877.068 108.576, 876.500 108.463 C 875.950 108.353, 873.250 108.595, 870.500 109.002 M 222.863 129.509 C 208.081 134.245, 197.792 149.214, 197.780 166 C 197.765 187.745, 214.631 204.031, 235.893 202.800 C 258.220 201.508, 273.911 181.534, 270.044 159.329 C 266.819 140.814, 253.656 128.998, 235.500 128.321 C 230.389 128.131, 225.825 128.559, 222.863 129.509 M 420.500 129.341 C 410.527 132.640, 403.291 139.092, 398.762 148.726 C 389.579 168.255, 397.190 191.106, 415.780 199.819 C 420.726 202.137, 422.785 202.500, 431 202.500 C 439.206 202.500, 441.276 202.136, 446.196 199.830 C 474.155 186.724, 474.858 145.394, 447.352 131.852 C 441.906 129.171, 439.443 128.580, 432.655 128.324 C 427.739 128.139, 422.911 128.543, 420.500 129.341 M 560.300 129.802 C 543.048 135.962, 532.822 153.670, 535.994 171.890 C 538.168 184.370, 545.066 193.858, 556.214 199.700 C 560.902 202.157, 562.574 202.472, 571 202.485 C 579.224 202.498, 581.265 202.141, 586.196 199.830 C 601.934 192.453, 610.884 173.805, 606.639 157.236 C 604.465 148.751, 601.691 143.638, 596.378 138.325 C 587.257 129.205, 572.041 125.610, 560.300 129.802 M 740.624 129.637 C 728.747 133.284, 719.687 142.637, 715.876 155.183 C 710.575 172.634, 718.894 191.400, 735.554 199.581 C 740.920 202.215, 742.475 202.500, 751.500 202.500 C 760.525 202.500, 762.080 202.215, 767.446 199.581 C 775.301 195.724, 781.434 189.417, 785.321 181.201 C 788.153 175.212, 788.489 173.543, 788.479 165.500 C 788.470 157.865, 788.065 155.633, 785.807 150.787 C 782.268 143.192, 778.547 138.648, 772.500 134.536 C 763.349 128.312, 751.079 126.426, 740.624 129.637" stroke="none" fill="#fffcfc" fill-rule="evenodd"/><path d="" stroke="none" fill="#fcfcfc" fill-rule="evenodd"/></svg>