<svg xmlns="http://www.w3.org/2000/svg" width="36" height="36.001" viewBox="0 0 36 36.001">
  <path id="Icon_awesome-directions" data-name="Icon awesome-directions" d="M35.34,16.405,19.595.66a2.256,2.256,0,0,0-3.189,0L.66,16.405a2.256,2.256,0,0,0,0,3.189L16.405,35.34a2.255,2.255,0,0,0,3.189,0L35.34,19.595a2.256,2.256,0,0,0,0-3.189Zm-7.1.883-5.921,5.465a.563.563,0,0,1-.944-.413V18.563h-6.75v4.5a.562.562,0,0,1-.562.563h-2.25a.562.562,0,0,1-.562-.562V17.438a2.25,2.25,0,0,1,2.25-2.25h7.875V11.41A.563.563,0,0,1,22.319,11l5.921,5.465a.563.563,0,0,1,0,.827Z" fill="#43290a"/>
</svg>
