<svg id="Instagram_white" xmlns="http://www.w3.org/2000/svg" width="40" height="40" viewBox="0 0 40 40">
  <path id="Combined-Shape" d="M20,40A20.005,20.005,0,0,1,12.215,1.572a20.005,20.005,0,0,1,15.57,36.857A19.874,19.874,0,0,1,20,40ZM20,9.333l-.462,0c-2.449,0-2.837.013-3.934.063a7.886,7.886,0,0,0-2.589.5,5.454,5.454,0,0,0-3.121,3.119A7.836,7.836,0,0,0,9.4,15.6c-.052,1.164-.065,1.547-.065,4.4s.012,3.233.065,4.4a7.913,7.913,0,0,0,.5,2.589,5.459,5.459,0,0,0,3.119,3.121,7.9,7.9,0,0,0,2.589.5c1.148.052,1.528.065,4.4.065s3.25-.012,4.4-.065a7.9,7.9,0,0,0,2.591-.5,5.465,5.465,0,0,0,3.119-3.121,7.954,7.954,0,0,0,.5-2.589c.052-1.164.065-1.547.065-4.4s-.012-3.234-.065-4.4a7.942,7.942,0,0,0-.5-2.588,5.454,5.454,0,0,0-3.12-3.12A7.917,7.917,0,0,0,24.4,9.4C23.248,9.345,22.868,9.333,20,9.333Z" fill="#43290a"/>
  <path id="Combined-Shape-2" data-name="Combined-Shape" d="M8.923,17.844c-2.9,0-3.242-.011-4.4-.064A6.037,6.037,0,0,1,2.5,17.405a3.376,3.376,0,0,1-1.251-.814A3.362,3.362,0,0,1,.438,15.34a6.008,6.008,0,0,1-.375-2.02C.011,12.177,0,11.834,0,8.921s.011-3.255.063-4.4A6.022,6.022,0,0,1,.438,2.5a3.357,3.357,0,0,1,.814-1.251A3.387,3.387,0,0,1,2.5.436,6.037,6.037,0,0,1,4.525.061C5.54.016,5.923,0,7.947,0c.094,0,.194,0,.283,0h.693c2.93,0,3.271.011,4.4.062A6.024,6.024,0,0,1,15.343.44a3.362,3.362,0,0,1,1.251.814,3.387,3.387,0,0,1,.815,1.251,6.053,6.053,0,0,1,.375,2.02c.052,1.142.063,1.486.063,4.4s-.011,3.255-.063,4.4a6.053,6.053,0,0,1-.375,2.02,3.61,3.61,0,0,1-2.066,2.064,5.994,5.994,0,0,1-2.021.376C12.166,17.833,11.82,17.844,8.923,17.844Zm0-14.508a5.589,5.589,0,1,0,5.589,5.59A5.6,5.6,0,0,0,8.923,3.336Zm5.81-1.527,0,0a1.306,1.306,0,1,0,1.309,1.3A1.306,1.306,0,0,0,14.731,1.811Z" transform="translate(11.487 11.483)" fill="#43290a"/>
  <path id="Shape" d="M3.628,0A3.628,3.628,0,1,1,0,3.628,3.628,3.628,0,0,1,3.628,0Z" transform="translate(16.782 16.781)" fill="#43290a"/>
</svg>
