<svg id="Group_17084" data-name="Group 17084" xmlns="http://www.w3.org/2000/svg" width="18.862" height="27" viewBox="0 0 18.862 27">
  <path id="Path_9" data-name="Path 9" d="M13.85,18.862a1.334,1.334,0,0,0,1.832-.539c1.725-3.341,3.18-6.79,3.18-8.892A9.431,9.431,0,0,0,0,9.431C0,13.473,5.874,22.9,8.461,26.407A1.428,1.428,0,0,0,9.647,27a1.585,1.585,0,0,0,1.24-.647c.593-.808,1.293-1.94,2.1-3.287A1.393,1.393,0,0,0,12.5,21.18h0a1.365,1.365,0,0,0-1.778.485c-.377.593-.7,1.186-1.078,1.725C6.575,18.916,2.695,11.964,2.695,9.431a6.737,6.737,0,0,1,13.473,0c0,1.509-1.24,4.527-2.856,7.653a1.318,1.318,0,0,0,.539,1.778Z" transform="translate(0 0)" fill="#43290a"/>
  <path id="Path_10" data-name="Path 10" d="M13.581,11.695a1.886,1.886,0,1,1-1.886,1.886,1.909,1.909,0,0,1,1.886-1.886m0-2.695a4.581,4.581,0,1,0,4.581,4.581A4.577,4.577,0,0,0,13.581,9Z" transform="translate(-4.15 -4.15)" fill="#43290a"/>
</svg>
