<svg xmlns="http://www.w3.org/2000/svg" width="2550.566" height="2270.604" viewBox="0 0 2550.566 2270.604">
  <g id="Logo_.1" data-name="Logo .1" transform="translate(4632.717 3526.867)">
    <g id="Group_17379" data-name="Group 17379" transform="translate(-4346.475 -3526.866)">
      <path id="Path_16852" data-name="Path 16852" d="M753.218,284.651c32.5-17.739,70.94-18.871,107.5-18.965,94.322-4.341,141.284,33.364,215.495,80.636-6.679,6.152-5.549,4.473-20.014,19-41.117,36.515-55.186,92.657-59.347,144.364-4.954,76.145,1.684,153.233,22.688,227.02,22.491,78.315,41.91,159.272,88.477,228.53-81.541,40.2-170.513,73.409-263.845,70.578-47.953.944-93.331-14.909-136.727-32.27-1.784,4.907-5.251,14.908-6.936,19.909l5.39,9.775c-16.13-20.975-130.594-261.893-114.672-476.175,5.944-57.274,57.435-222.953,71.237-253.628-2.476,13.115,11.484-2.5,9.6,10.8,32.8-18.777,47.765-11.842,81.155-29.581" transform="translate(-589.711 -47.565)" fill="#bfc2c6"/>
      <path id="Path_16853" data-name="Path 16853" d="M821.16,311.37c85.008-28.024,178.568,10.747,262.487,26.6,13.87,58.689,19.27,156.687,11.641,217.452-7.034,52.462-65.441,171.671-87.733,196.581,3.071-11.511-8.481-3.029-5.706-14.54-42.307,5.567-70.881-7.256-113.682-12.445-51.323-6.133-99.969-24.438-146.933-44.347,56.177-17.173,101.555-60.1,119.488-113.7,25.463-83.6,6.212-180.587-39.561-255.6" transform="translate(760.025 257.196)" fill="#bfc2c6"/>
      <path id="Path_16854" data-name="Path 16854" d="M696.844,508.154c71.931-59.349,130.387-132,204.2-189.183,70.742,78.5,136.926,164.934,235.608,214.093,46.963,19.909,95.609,38.214,146.933,44.347,42.8,5.19,99.216-.585,141.522-6.152-5.043,11.294-13.553,22.391-22.134,33.138-59.546,66.993-150.1,101.055-238.877,115.4-280.5,14.153-429.4-170.029-467.252-211.64" transform="translate(364.607 404.801)" fill="#0ea89b"/>
      <path id="Path_16855" data-name="Path 16855" d="M837.239,276.956c107.4-49.82,238.579-45.762,342.215,10.756,53.5,35.667,98.88,80.769,146.041,123.512,47.16,40.573,204.893,240.985,253.937,286.558,6.926,6.577,13.563,10.417,18.507,14.918-80.857,71.333-157.415,129.541-237.172,202.1-40.622-54.632-204.19-296.862-303.773-353.362-74.209-47.272-152.877-105.4-247.2-101.055-36.56.094-75,1.227-107.5,18.965-33.389,17.739-74.071,42.262-106.866,61.039,4.33-13.653,10.522-29.184,16.111-42.262,55.583-88.789,121.965-179.559,225.7-221.17" transform="translate(-538.787 -242.264)" fill="#0ea89b"/>
      <path id="Path_16856" data-name="Path 16856" d="M1716.313,327.054c53.7-23.306,210.679-78.617,363.022-34.44,47.458,13.21,86,43.4,126.325,69.257,32.992,21.324,138.312,148.043,142.573,190.976C2264.313,537,2131.9,497.771,1991.552,547.94c-80.254,33.685-152.679,82.09-221.341,133.513-73.812,57.18-132.268,129.833-204.2,189.183-32.795,25.287-166.114,135.09-209.609,172.548-55.186,39.865-322.38,176.709-544.77,76.362-77.182-48.216-154.166-105.867-196.274-185.975-3.665-5.68-13.267-25.5-16.09-31.185,43.4,17.362,111.8,44.489,159.753,43.546,93.331,2.83,182.3-30.383,263.845-70.578,46.17-20.192,88.972-47.178,124.739-81.712,61.924-52.179,121.172-107.094,178.934-163.424,79.759-72.559,165.461-138.8,246.308-210.13,41.811-38.591,92.738-66.52,143.465-93.034" transform="translate(-504.571 42.318)" fill="#c7db53"/>
      <path id="Path_16857" data-name="Path 16857" d="M980.19,500.776c0,78.542-66.858,142.213-149.32,142.213S681.54,579.318,681.54,500.776,748.4,358.564,830.87,358.564s149.32,63.671,149.32,142.212" transform="translate(228.282 738.791)" fill="#10a89b"/>
    </g>
    <g id="Group_17382" data-name="Group 17382" transform="translate(2378 1319.801)">
      <path id="Path_16901" data-name="Path 16901" d="M88.574-58.789H44.824l-8.4,23.438q-3.027,8.3-.293,11.621,2.637,3.32,16.113,3.32h2.539V-12.6H1.758V-20.41H4.785q8.105,0,12.988-5.371,3.418-3.906,6.641-12.988l34.18-95.41-2.148-5.859h29.59l39.941,101.66q3.516,8.984,7.031,12.6Q137.7-21,146-20.41V-12.6H80.957V-20.41h7.031q8.789,0,11.035-3.809,2.148-3.711-.977-11.426Zm-4.59-11.035L65.625-116.6l-16.8,46.777ZM407.07-65.43v30.469q0,14.551,15.82,14.551h5.957V-12.6h-70.02V-20.41h3.223q9.082,0,12.891-2.734,4.492-3.223,4.492-11.816v-79q0-8.691-3.564-11.963T363.516-129.2h-4.2v-7.812l25.781-1.562q20.41-1.465,32.813-1.465,22.363,0,35.059,3.125t20.313,10.742a31.079,31.079,0,0,1,9.57,22.754q0,24.219-29.59,32.227,6.934,5.664,16.113,18.262,5.762,7.91,18.262,22.754a37.6,37.6,0,0,0,12.012,8.594q5.176,2.148,14.453,3.223v7.715q-4.395.293-12.4.293-23.34,0-33.887-5.371a39.777,39.777,0,0,1-10.547-7.715,127.2,127.2,0,0,1-12.4-15.039L433.34-54.395A82.18,82.18,0,0,0,422.891-65.43Zm0-66.016v57.617h7.813q17.773,0,26.758-5.469,11.426-6.836,11.426-23.34,0-28.809-35.547-28.809ZM808.477-58.789h-43.75l-8.4,23.438q-3.027,8.3-.293,11.621,2.637,3.32,16.113,3.32h2.539V-12.6H721.66V-20.41h3.027q8.105,0,12.988-5.371,3.418-3.906,6.641-12.988l34.18-95.41-2.148-5.859h29.59l39.941,101.66q3.516,8.984,7.031,12.6Q857.6-21,865.9-20.41V-12.6H800.859V-20.41h7.031q8.789,0,11.035-3.809,2.148-3.711-.977-11.426Zm-4.59-11.035L785.527-116.6l-16.8,46.777Zm299.063,32.617v-74.414q0-14.355-5.957-16.406-3.613-1.172-11.426-1.172h-4.98v-7.812q4.785,0,12.6-.586,10.352-.879,12.6-.977l11.133-.586q15.332-.879,21.289-.879,40.625,0,54.98,14.258a24.8,24.8,0,0,1,7.617,18.164q0,17.871-24.609,23.828,13.477,2.832,22.07,11.23a30.167,30.167,0,0,1,9.473,22.363q0,22.168-23.828,32.52-11.719,5.078-27.734,5.078H1078.73V-20.41q18.164,0,22.266-7.031Q1102.949-30.957,1102.949-37.207Zm27.637-41.406v39.063q0,13.477,7.617,16.406a29.059,29.059,0,0,0,10.547,1.563q28.027,0,28.027-27.832,0-14.551-8.789-22.363-8.4-7.422-22.852-7.422Q1139.668-79.2,1130.586-78.613Zm0-53.027v44.434q8.789.391,15.43.391,25,0,25-21,0-24.414-29.883-24.414A93.7,93.7,0,0,0,1130.586-131.641ZM1461.875-13.77a8.3,8.3,0,0,1-2.49,6.1,8.073,8.073,0,0,1-5.908,2.49,8.3,8.3,0,0,1-6.1-2.49,8.3,8.3,0,0,1-2.49-6.1,9.1,9.1,0,0,1,2.344-6.25,7.312,7.312,0,0,1,5.664-2.637,8.689,8.689,0,0,1,6.4,2.588A8.573,8.573,0,0,1,1461.875-13.77Zm278.066-112.207v45.02h27.832q13.281,0,15.918-5.762,1.465-3.125,1.465-8.887h8.008v39.844h-8.008q0-14.258-13.77-14.258h-31.445v32.227q0,13.477,4.98,16.016,2.734,1.367,8.4,1.367h3.809V-12.6h-59.766V-20.41h3.223q6.445,0,9.082-2.539t2.637-8.887v-80.957q0-8.3-2.051-11.816-2.832-4.785-10.352-4.785h-2.539v-7.617H1798.34v28.223h-7.227q-.488-8.789-2.344-12.109-2.734-5.078-10.254-5.078Zm287.832,53.223q0-29.59,21.533-48.828t55.127-19.238q31.543,0,51.465,17.725t19.922,45.85a64.015,64.015,0,0,1-12.012,38.184q-11.719,16.406-31.836,23.926a87.251,87.251,0,0,1-31.348,5.371,87.371,87.371,0,0,1-36.426-7.422q-18.164-8.3-27.734-24.121A59.58,59.58,0,0,1,2027.773-72.754Zm29.883-9.668q0,28.32,13.281,46.289,12.988,17.773,34.277,17.773,26.367,0,36.328-25.684a72.544,72.544,0,0,0,4.492-25.977q0-25.781-12.012-43.457-12.7-18.75-34.375-18.75-25.976,0-36.719,23.633Q2057.656-97.168,2057.656-82.422ZM2445.293-65.43v30.469q0,14.551,15.82,14.551h5.957V-12.6h-70.02V-20.41h3.223q9.082,0,12.891-2.734,4.492-3.223,4.492-11.816v-79q0-8.691-3.564-11.963t-12.354-3.271h-4.2v-7.812l25.781-1.562q20.41-1.465,32.813-1.465,22.363,0,35.059,3.125t20.313,10.742a31.08,31.08,0,0,1,9.57,22.754q0,24.219-29.59,32.227,6.933,5.664,16.113,18.262,5.762,7.91,18.262,22.754a37.606,37.606,0,0,0,12.012,8.594q5.176,2.148,14.453,3.223v7.715q-4.395.293-12.4.293-23.34,0-33.887-5.371a39.777,39.777,0,0,1-10.547-7.715,127.2,127.2,0,0,1-12.4-15.039l-11.523-15.918a82.186,82.186,0,0,0-10.449-11.035Zm0-66.016v57.617h7.813q17.773,0,26.758-5.469,11.426-6.836,11.426-23.34,0-28.809-35.547-28.809Z" transform="translate(-7012.475 -2570.889)" fill="#43290a"/>
      <path id="Path_16900" data-name="Path 16900" d="M-7,48.82H10.642A30.086,30.086,0,0,0,25.223,45.4a24.574,24.574,0,0,0,9.9-9.9,29.88,29.88,0,0,0,3.6-14.762V-154.242H93.451V20.737q0,23.4-10.8,42.3a79.765,79.765,0,0,1-29.7,29.883q-18.9,10.981-42.3,10.981H-7ZM319.556-34.349V20.377h-19.8V-34.349ZM155.018,48.1q34.924,7.561,55.626,5.761T239.807,43.6a28.589,28.589,0,0,0,8.461-21.062V-32.909l54.726-24.483v93.61a64.832,64.832,0,0,1-17.822,45.545q-17.822,19.262-51.306,24.663t-78.849-7.561Zm57.966-28.443A77.737,77.737,0,0,1,171.759,8.136,85.5,85.5,0,0,1,141.7-22.828a83.849,83.849,0,0,1-11.161-42.485v-16.2a86.314,86.314,0,0,1,10.981-43.2,80.127,80.127,0,0,1,30.423-30.6,85.222,85.222,0,0,1,43.2-11.161h3.6q23.763,0,43.025,11.161a80.5,80.5,0,0,1,30.243,30.6,86.314,86.314,0,0,1,10.981,43.2v29.523L248.268-27.508V-81.514q0-14.042-8.281-22.142t-21.242-8.1h-3.6a31.2,31.2,0,0,0-15.662,3.78,26.936,26.936,0,0,0-10.441,10.621,32.218,32.218,0,0,0-3.78,15.842v16.2a30.737,30.737,0,0,0,3.78,15.122A30.068,30.068,0,0,0,199.3-39.21a25,25,0,0,0,13.682,4.14Zm62.647-54.726V19.657H212.264V-35.069Zm125.294.72V20.377h-86.77V-34.349Zm79.569,0V20.377h-86.77V-34.349Zm79.569,0V20.377h-86.77V-34.349Zm79.569,0V20.377h-86.77V-34.349Zm79.569,0V20.377H632.43V-34.349Zm79.569,0V20.377H712V-34.349ZM902.1-190.966a30.475,30.475,0,0,1-22.323-9.361,30.475,30.475,0,0,1-9.361-22.322q0-12.6,9.361-22.142a30.6,30.6,0,0,1,22.682-9.541,30.475,30.475,0,0,1,22.323,9.361,30.475,30.475,0,0,1,9.361,22.322,30.475,30.475,0,0,1-9.361,22.322A30.891,30.891,0,0,1,902.1-190.966Zm1.44,24.843q23.763,0,43.025,11.161a81.451,81.451,0,0,1,30.423,30.783,85.514,85.514,0,0,1,11.161,43.025v23.4a76.85,76.85,0,0,1-10.441,39.244A77,77,0,0,1,949.265,9.936a76.187,76.187,0,0,1-38.884,10.441H794.448l-23.763-8.641V-25.708l23.763-9h28.443a93.715,93.715,0,0,1-5.4-14.4,57.387,57.387,0,0,1-2.16-15.842v-16.2a85.514,85.514,0,0,1,11.161-43.025,81.062,81.062,0,0,1,30.6-30.783,84.532,84.532,0,0,1,42.845-11.161Zm29.883,84.969a31.467,31.467,0,0,0-3.78-15.482A26.936,26.936,0,0,0,919.2-107.257a31.2,31.2,0,0,0-15.662-3.78h-3.6a30.456,30.456,0,0,0-15.3,3.78A26.936,26.936,0,0,0,874.2-96.636a31.468,31.468,0,0,0-3.78,15.482v16.2a33.04,33.04,0,0,0,3.6,15.3A27.029,27.029,0,0,0,884.1-38.67a25.826,25.826,0,0,0,13.682,3.96h7.2a27.386,27.386,0,0,0,14.042-3.78,29.48,29.48,0,0,0,10.441-10.261,27.077,27.077,0,0,0,3.96-14.4Zm211.343-29.163v47.525q0,12.961,7.741,20.7t20.7,7.741H1289.5q15.482,0,21.062-7.741t5.581-21.422v-88.93h54.366V-39.03a59.358,59.358,0,0,1-7.741,30.063,57.349,57.349,0,0,1-21.422,21.422,59.273,59.273,0,0,1-30.243,7.921h-137.9a84.729,84.729,0,0,1-42.485-10.8,77.718,77.718,0,0,1-29.883-29.883,84.727,84.727,0,0,1-10.8-42.485v-47.525Zm87.85,238.346a31.071,31.071,0,0,1-22.5-9.361,30.193,30.193,0,0,1-9.541-22.322q0-12.6,9.541-22.142a30.779,30.779,0,0,1,22.5-9.541,30.193,30.193,0,0,1,22.322,9.541q9.361,9.541,9.361,22.142a31.965,31.965,0,0,1-31.683,31.683ZM1522.088-34.349V20.377h-29.523V-34.349ZM1392.834,48.82h17.642a30.086,30.086,0,0,0,14.582-3.42,24.575,24.575,0,0,0,9.9-9.9,29.88,29.88,0,0,0,3.6-14.762V-154.242h55.086V20.737q0,23.4-10.981,42.3a81.12,81.12,0,0,1-29.883,29.883q-18.9,10.981-42.3,10.981h-17.642Zm208.823-83.169V20.377h-86.77V-34.349Zm79.569,0V20.377h-86.77V-34.349Zm79.569,0V20.377h-86.77V-34.349Zm79.569,0V20.377h-86.77V-34.349Zm79.569,0V20.377h-86.77V-34.349Zm177.859,0V20.377h-182.54V-34.349Zm-15.122-82.809q-24.483-9-44.285-7.381t-30.963,13.681q-11.161,12.061-11.161,33.3,0,23.043,12.961,33.124t36,10.081L2033.344,2.735q-32.044-1.8-54.186-12.781T1946.034-39.21a76.173,76.173,0,0,1-10.981-40.144q0-41.4,21.782-65.527t55.986-29.523q34.2-5.4,69.848,6.841ZM1891.848,11.736V-25.708l23.763-8.641V20.377Z" transform="translate(-6797.537 -3000.07)" fill="#43290a"/>
    </g>
  </g>
</svg>
