<svg xmlns="http://www.w3.org/2000/svg" width="19.542" height="19.575" viewBox="0 0 19.542 19.575">
  <g id="Icon" transform="translate(0.001)">
    <g id="Group_195" data-name="Group 195" transform="translate(-0.001)">
      <path id="Path_18" data-name="Path 18" d="M19.145,4.424l-2.31-3.367A2.67,2.67,0,0,0,14.721,0H4.855A2.478,2.478,0,0,0,2.78,1.1L.47,4.463A2.264,2.264,0,0,0,0,5.873v11.2a2.523,2.523,0,0,0,2.506,2.506H17.031a2.5,2.5,0,0,0,2.506-2.506V5.873A2.386,2.386,0,0,0,19.145,4.424ZM14.721,1.958a.558.558,0,0,1,.47.235l1.449,2.114H10.766V1.958ZM4.385,2.192a.558.558,0,0,1,.47-.235H8.809V4.307H2.936ZM17.618,17.07a.535.535,0,0,1-.548.548H2.506a.535.535,0,0,1-.548-.548V6.773a.518.518,0,0,1,.509-.509H17.187a.518.518,0,0,1,.509.509v10.3Z" transform="translate(0 0)" fill="#FFFFFF"/>
    </g>
    <path id="Path_19" data-name="Path 19" d="M21.851,22.958H15.979A.969.969,0,0,1,15,21.979h0A.969.969,0,0,1,15.979,21h5.873a.969.969,0,0,1,.979.979h0A.969.969,0,0,1,21.851,22.958Z" transform="translate(-9.128 -12.778)" fill="#FFFFFF"/>
    <path id="Path_16350" data-name="Path 16350" d="M21.851,22.958H15.979A.969.969,0,0,1,15,21.979h0A.969.969,0,0,1,15.979,21h5.873a.969.969,0,0,1,.979.979h0A.969.969,0,0,1,21.851,22.958Z" transform="translate(-9.128 -12.778)" fill="#FFFFFF"/>
  </g>
</svg>
