<svg xmlns="http://www.w3.org/2000/svg" width="26.371" height="26.371" viewBox="0 0 26.371 26.371">
  <g id="Calling" transform="translate(0 0)">
    <path id="Fill_1" data-name="Fill 1" d="M2.517,8.191C1.8,6.606,1.755,5.422,2.421,4.5c.43-.717,2.38-2.583,3.253-2.543A1.175,1.175,0,0,1,6.3,2.34,24.738,24.738,0,0,1,9.134,6.08c.069.326-.093.631-.386,1.142a3.188,3.188,0,0,0-.474,2.861,13.561,13.561,0,0,0,4.65,6.035.966.966,0,0,0,1.354-.227.983.983,0,0,0-.225-1.365A11.6,11.6,0,0,1,10.087,9.38c-.118-.325,0-.582.344-1.183a3.474,3.474,0,0,0,.6-2.517c-.206-1-2.774-4.143-3.384-4.741A2.975,2.975,0,0,0,5.8.005C3.494-.147,1.029,3.037.807,3.415-.25,4.868-.268,6.748.75,9a.968.968,0,0,0,1.286.485.981.981,0,0,0,.482-1.295" transform="translate(0 0.277)" fill="#43290a"/>
    <path id="Fill_3" data-name="Fill 3" d="M17.7,3.941a3.941,3.941,0,0,0-2.982.822l-.3.189a.982.982,0,0,0-.331,1.343.969.969,0,0,0,1.332.334l.337-.211c.654-.413,1.079-.661,1.5-.576a23.371,23.371,0,0,1,3.771,2.874,1.3,1.3,0,0,1,.376.579c.035,1.009-1.9,2.948-2.586,3.366-.874.631-2.051.586-3.632-.153C11.266,10.87,5.128,5.336,1.771.424A.968.968,0,0,0,.42.171a.983.983,0,0,0-.249,1.36c3.595,5.262,9.99,11,14.219,12.767a7.236,7.236,0,0,0,3.029.767,4.051,4.051,0,0,0,2.433-.762c.365-.211,3.561-2.723,3.477-5.124A3,3,0,0,0,22.4,7.348c-.6-.616-3.716-3.2-4.707-3.407" transform="translate(2.566 11.306)" fill="#43290a"/>
    <path id="Fill_5" data-name="Fill 5" d="M4.549,5.724a.973.973,0,0,0,.952.79A1.016,1.016,0,0,0,5.688,6.5a.979.979,0,0,0,.768-1.148A6.7,6.7,0,0,0,1.157.015.987.987,0,0,0,.018.788.98.98,0,0,0,.786,1.935,4.756,4.756,0,0,1,4.549,5.724" transform="translate(15.311 4.625)" fill="#43290a"/>
    <path id="Fill_7" data-name="Fill 7" d="M1.079.008A.968.968,0,0,0,.006.871a.977.977,0,0,0,.859,1.08,9.335,9.335,0,0,1,8.26,8.308.974.974,0,0,0,.963.868,1.058,1.058,0,0,0,.11-.007.975.975,0,0,0,.856-1.081A11.268,11.268,0,0,0,1.079.008" transform="translate(15.311 0)" fill="#43290a"/>
  </g>
</svg>
