<svg id="Twitter_white" xmlns="http://www.w3.org/2000/svg" width="40" height="40" viewBox="0 0 40 40">
  <path id="Combined-Shape" d="M20,40A20.005,20.005,0,0,1,12.215,1.572a20.005,20.005,0,0,1,15.57,36.857A19.874,19.874,0,0,1,20,40ZM10.641,17.686c-.022,0-.035,0-.04.011a5.031,5.031,0,0,0,.5,1.892A4.511,4.511,0,0,0,13.022,21.4l.686.325-.812.013c-.5,0-.683.007-.739.081-.035.047-.018.121.013.23a4.222,4.222,0,0,0,2.616,2.316l.867.3-.755.452a7.932,7.932,0,0,1-3.749,1.046A4.239,4.239,0,0,0,10,26.27a10.558,10.558,0,0,0,2.7,1.243A11.311,11.311,0,0,0,16.033,28a11.655,11.655,0,0,0,5.844-1.532,12.221,12.221,0,0,0,4.658-5.48,14.634,14.634,0,0,0,.951-4.237c0-.654.046-.739.826-1.511a9.223,9.223,0,0,0,.98-1.088c.051-.1.081-.161.065-.188-.007-.011-.022-.017-.045-.017a3.181,3.181,0,0,0-.607.177,3.93,3.93,0,0,1-.981.273c-.062,0-.1-.014-.112-.044-.03-.069.069-.222.323-.5a4.125,4.125,0,0,0,.952-1.511c0-.008-.008-.013-.023-.013a1.388,1.388,0,0,0-.424.168,7.817,7.817,0,0,1-1.232.48l-.755.24-.686-.466a5.652,5.652,0,0,0-1.189-.622A4.366,4.366,0,0,0,23.459,12a4.243,4.243,0,0,0-1.33.189A4.034,4.034,0,0,0,19.4,16.256l.042.692-.7-.085a11.409,11.409,0,0,1-6.659-3.277l-.923-.918-.239.678a4.088,4.088,0,0,0,.868,4.181c.253.268.357.425.328.493-.012.028-.046.041-.1.041a2.832,2.832,0,0,1-.756-.209A2.843,2.843,0,0,0,10.641,17.686Z" fill="#43290a"/>
</svg>
